<?xml version="1.0" standalone="no"?>
<!DOCTYPE svg PUBLIC "-//W3C//DTD SVG 20010904//EN"
 "http://www.w3.org/TR/2001/REC-SVG-20010904/DTD/svg10.dtd">
<svg version="1.0" xmlns="http://www.w3.org/2000/svg"
 width="1000.000000pt" height="1000.000000pt" viewBox="0 0 1000.000000 1000.000000"
 preserveAspectRatio="xMidYMid meet">
<metadata>
Created by potrace 1.11, written by Peter Selinger 2001-2013
</metadata>
<g transform="translate(0.000000,1000.000000) scale(0.100000,-0.100000)"
fill="#000000" stroke="none">
<path d="M4924 8899 c-3 -5 -9 -7 -14 -4 -4 2 -19 -4 -32 -15 -14 -11 -28 -16
-32 -13 -3 3 -6 -2 -6 -11 0 -12 -5 -16 -16 -12 -8 3 -13 2 -9 -3 3 -5 -2 -17
-11 -25 -8 -9 -13 -16 -9 -16 4 0 -1 -7 -9 -16 -9 -8 -16 -24 -16 -35 0 -10
-5 -19 -11 -19 -8 0 -8 -4 0 -14 7 -8 8 -17 3 -20 -5 -3 -8 -65 -7 -138 1 -81
-3 -139 -9 -147 -8 -11 -8 -13 0 -8 14 8 13 -84 -1 -98 -9 -9 -22 -12 -87 -16
-16 -1 -28 -5 -28 -9 0 -4 -14 -10 -31 -14 -20 -4 -28 -10 -23 -17 4 -7 3 -9
-4 -5 -6 3 -17 -1 -26 -10 -9 -8 -21 -12 -27 -8 -8 4 -9 3 -5 -4 4 -7 3 -12
-2 -12 -10 0 -96 -118 -98 -135 -1 -5 -3 -13 -4 -17 -1 -5 -4 -12 -5 -18 -1
-5 -3 -11 -5 -12 -7 -10 -10 -70 -12 -255 -1 -151 -4 -210 -12 -206 -8 5 -7 2
0 -8 7 -9 12 -60 11 -136 l0 -122 -26 -7 c-14 -4 -32 -8 -40 -10 -75 -15 -272
-86 -381 -137 -25 -12 -47 -22 -50 -22 -3 0 -21 -8 -40 -17 -159 -74 -196 -92
-200 -93 -28 -8 -240 -119 -240 -127 0 -5 -4 -7 -9 -4 -4 3 -33 -12 -62 -34
-30 -21 -103 -64 -164 -95 -60 -31 -139 -74 -174 -96 -34 -21 -65 -39 -67 -39
-8 0 -69 -45 -72 -52 -2 -5 -10 -8 -18 -8 -8 0 -14 -4 -14 -10 0 -5 -7 -10
-15 -10 -8 0 -15 -3 -15 -8 0 -4 -11 -14 -24 -22 -52 -32 -194 -163 -253 -233
-85 -101 -166 -255 -188 -357 -2 -8 -4 -15 -5 -15 -3 0 -11 -63 -14 -113 -2
-51 -1 -53 53 -110 64 -66 110 -102 128 -102 7 0 13 -5 13 -11 0 -5 4 -8 9 -5
5 4 11 2 13 -3 2 -8 29 -16 70 -20 4 -1 14 -16 22 -35 25 -61 51 -76 120 -71
89 6 191 20 191 25 0 1 17 3 38 4 20 1 37 0 37 -2 0 -13 -69 -69 -100 -82 -34
-14 -40 -16 -59 -19 -6 0 -9 -10 -8 -20 1 -12 7 -18 17 -16 46 11 296 102 302
110 4 6 8 7 8 3 0 -6 116 23 150 38 8 4 20 8 25 8 36 4 121 31 127 40 6 8 8 7
8 -1 0 -9 12 -9 47 2 26 8 49 12 51 10 3 -2 12 0 21 4 9 5 41 12 71 15 30 4
73 10 95 12 22 3 70 7 107 8 37 1 70 5 73 8 3 3 23 -4 45 -14 34 -17 38 -23
29 -39 -7 -14 -6 -19 3 -19 10 0 10 -2 -1 -9 -7 -5 -10 -14 -7 -20 4 -6 0 -11
-10 -11 -13 0 -14 -3 -4 -15 9 -10 9 -15 1 -15 -6 0 -10 -3 -10 -7 1 -5 0 -11
-1 -15 -1 -5 -3 -11 -4 -15 -5 -24 -28 -52 -44 -51 -101 1 -174 -6 -187 -18
-7 -8 -18 -14 -24 -14 -5 0 -14 -6 -18 -13 -4 -8 -21 -17 -36 -21 -25 -6 -27
-5 -18 12 6 11 7 22 4 26 -3 3 -1 6 6 6 7 0 9 5 6 10 -10 16 -65 12 -66 -5 -1
-8 -3 -19 -4 -25 -1 -5 -3 -17 -4 -25 -1 -16 -41 -21 -57 -6 -5 5 -19 5 -32 0
-17 -6 -22 -15 -20 -31 3 -20 9 -23 41 -22 34 2 37 0 33 -22 -3 -13 -7 -33
-11 -44 -3 -10 1 -32 9 -49 14 -26 20 -29 63 -28 28 1 48 -4 51 -11 2 -7 0
-12 -5 -13 -4 0 -15 -2 -23 -5 -17 -5 -191 -42 -230 -49 -14 -3 -52 -7 -85
-10 -33 -3 -69 -8 -80 -10 -11 -2 -29 -4 -40 -5 -11 -1 -14 -4 -7 -7 6 -2 10
-9 6 -14 -5 -8 28 -26 66 -36 29 -7 165 -2 201 7 26 7 46 7 66 -1 15 -7 40
-11 56 -10 15 1 27 -3 27 -7 0 -21 -39 -41 -90 -47 -83 -10 -84 -10 -64 -44
10 -17 21 -28 26 -25 4 3 5 -2 2 -10 -3 -9 -9 -16 -13 -16 -3 0 -25 -17 -47
-37 -23 -21 -58 -51 -79 -68 -20 -16 -54 -47 -76 -67 -21 -21 -41 -38 -44 -38
-3 0 -13 -8 -23 -17 -22 -22 -84 -76 -142 -123 -24 -19 -55 -46 -70 -60 -14
-14 -49 -43 -78 -65 -29 -21 -52 -43 -52 -48 0 -4 -4 -6 -9 -2 -5 3 -13 1 -16
-5 -4 -6 -46 -40 -93 -75 -48 -35 -91 -68 -97 -72 -5 -5 -39 -31 -75 -58 -36
-27 -68 -54 -72 -60 -5 -6 -8 -6 -8 0 0 5 -7 -1 -16 -13 -8 -12 -20 -20 -25
-17 -5 4 -9 2 -9 -2 0 -5 -37 -36 -82 -70 -46 -34 -93 -71 -106 -83 -12 -11
-22 -18 -22 -15 0 2 -10 -3 -21 -13 -12 -9 -36 -28 -53 -42 -17 -14 -49 -39
-71 -55 -22 -15 -48 -36 -57 -44 -31 -29 -48 -42 -48 -36 0 3 -8 -3 -18 -12
-33 -32 -72 -63 -72 -58 0 3 -8 -3 -19 -12 -10 -10 -39 -34 -65 -53 -26 -19
-56 -42 -66 -52 -10 -9 -21 -14 -24 -11 -3 4 -6 1 -6 -5 0 -6 -21 -25 -47 -43
-25 -18 -53 -39 -62 -48 -9 -9 -30 -25 -45 -36 -16 -11 -40 -30 -54 -42 -14
-13 -28 -23 -31 -23 -3 0 -26 -18 -50 -40 -25 -22 -47 -40 -51 -40 -3 0 -26
-18 -50 -40 -25 -22 -48 -40 -52 -40 -4 0 -21 -13 -38 -30 -16 -16 -30 -27
-30 -23 0 3 -8 -4 -19 -15 -10 -12 -22 -22 -25 -22 -4 0 -13 -6 -20 -12 -7 -7
-26 -24 -43 -38 -24 -19 -29 -28 -22 -41 12 -24 30 -19 79 21 23 19 53 41 66
48 13 7 24 17 24 22 0 6 4 10 9 10 6 0 31 14 57 32 55 37 156 80 165 70 4 -4
10 -17 13 -29 9 -28 -55 -95 -209 -218 -28 -22 -55 -44 -61 -50 -6 -5 -25 -21
-43 -35 -18 -14 -46 -37 -61 -51 l-28 -27 36 -29 c59 -45 128 -76 149 -65 10
6 20 10 23 10 12 0 66 27 72 37 4 5 8 7 8 3 0 -4 22 6 49 22 26 17 51 30 55
30 4 0 22 11 41 25 24 19 40 24 58 19 23 -5 81 18 122 49 31 23 87 57 95 57 6
0 10 5 10 10 0 6 7 10 15 10 8 0 15 5 15 10 0 6 7 10 15 10 8 0 15 5 15 10 0
6 6 10 14 10 8 0 16 3 18 8 5 11 66 52 77 52 6 0 14 6 18 14 4 7 26 24 48 38
41 26 244 175 280 206 11 9 38 31 61 48 55 42 84 66 106 86 10 10 20 18 23 18
7 0 40 28 89 73 49 45 24 39 -56 -14 -53 -35 -77 -39 -60 -12 7 11 136 112
183 143 12 8 30 22 39 30 52 48 118 80 75 37 -8 -9 -15 -18 -15 -22 0 -4 -7
-13 -15 -21 -8 -9 -15 -21 -15 -27 0 -8 3 -8 9 1 4 8 11 12 14 10 4 -1 14 4
24 12 10 9 36 29 58 45 22 16 50 40 62 53 12 12 24 21 25 20 2 -1 14 7 28 19
14 12 35 30 46 40 70 60 142 124 182 161 25 23 49 42 54 42 4 0 8 7 8 15 0 8
4 14 8 12 4 -1 25 15 47 36 21 21 45 35 52 33 7 -3 13 -2 13 2 0 13 163 -2
168 -15 2 -7 -2 -13 -8 -13 -7 0 -10 -8 -7 -20 3 -10 1 -20 -5 -22 -5 -2 -10
-13 -11 -26 0 -12 -5 -22 -9 -22 -4 0 -7 -3 -7 -7 4 -23 -2 -53 -9 -49 -5 3
-9 -9 -9 -25 0 -17 -6 -35 -13 -39 -8 -5 -15 -16 -16 -24 -1 -10 2 -13 9 -9 7
4 6 -1 -2 -10 -7 -9 -10 -17 -6 -17 4 0 2 -7 -5 -15 -7 -9 -10 -18 -7 -22 4
-3 2 -12 -3 -19 -6 -6 -12 -20 -14 -30 -3 -11 -12 -40 -21 -67 -9 -26 -13 -53
-9 -59 4 -7 3 -8 -4 -4 -8 5 -12 0 -12 -13 0 -12 -6 -21 -12 -21 -9 0 -8 -4 2
-10 11 -7 11 -10 2 -10 -7 0 -11 -4 -7 -9 3 -5 1 -12 -5 -16 -6 -4 -8 -11 -5
-16 4 -5 2 -9 -3 -9 -5 0 -8 -12 -6 -26 1 -14 0 -23 -4 -20 -6 6 -30 -69 -35
-107 -1 -10 -9 -22 -17 -27 -13 -9 -13 -10 0 -10 9 0 11 -3 5 -8 -10 -7 -16
-24 -19 -52 0 -8 -6 -21 -13 -28 -7 -7 -10 -19 -7 -27 4 -8 1 -15 -5 -15 -6 0
-8 -6 -5 -14 3 -8 1 -17 -5 -21 -6 -3 -11 -19 -11 -36 0 -16 -5 -29 -11 -29
-6 0 -9 -7 -5 -15 3 -8 0 -15 -6 -15 -6 0 -8 -3 -5 -7 4 -3 2 -12 -4 -20 -9
-10 -8 -13 2 -13 11 0 11 -2 1 -9 -7 -4 -14 -18 -15 -29 -1 -12 -5 -22 -9 -22
-4 0 -8 -14 -8 -31 0 -16 -4 -28 -9 -25 -5 4 -8 -2 -6 -11 1 -10 -4 -26 -13
-35 -11 -13 -12 -18 -2 -18 9 0 10 -3 1 -13 -6 -8 -8 -17 -4 -20 3 -4 -1 -7
-10 -7 -14 0 -15 -5 -7 -25 8 -20 6 -27 -5 -31 -9 -4 -15 -11 -14 -18 1 -6 -3
-24 -9 -39 -7 -16 -10 -33 -6 -38 3 -5 0 -9 -6 -9 -7 0 -10 -6 -7 -12 2 -7 -5
-26 -16 -42 -12 -16 -16 -26 -9 -22 13 8 17 -6 5 -18 -8 -7 -9 -11 -12 -37 0
-5 -5 -8 -9 -5 -4 2 -8 -3 -8 -12 -2 -33 -15 -87 -23 -92 -5 -3 -7 -13 -5 -22
1 -10 -2 -18 -7 -18 -5 0 -8 -3 -7 -7 1 -5 -5 -28 -12 -53 -7 -25 -13 -48 -12
-52 1 -5 -3 -8 -9 -8 -5 0 -7 -5 -3 -11 3 -6 0 -15 -7 -20 -12 -7 -11 -9 1 -9
13 0 13 -2 1 -9 -9 -6 -15 -28 -15 -60 -1 -28 -4 -51 -9 -51 -4 0 0 -14 8 -30
9 -17 13 -35 10 -40 -3 -6 -1 -10 4 -10 6 0 11 -7 11 -15 0 -8 5 -15 11 -15 6
0 8 -7 5 -16 -3 -8 -2 -12 3 -9 16 9 18 -28 4 -57 -7 -15 -12 -31 -11 -35 1
-4 -3 -18 -10 -29 -6 -12 -9 -24 -5 -27 3 -4 0 -13 -7 -22 -7 -8 -10 -22 -6
-30 3 -9 2 -13 -4 -10 -6 3 -10 -3 -10 -14 0 -11 -4 -22 -10 -26 -5 -3 -7 -12
-4 -19 3 -8 0 -17 -5 -21 -6 -3 -9 -10 -6 -15 3 -5 1 -11 -4 -15 -6 -3 -8 -12
-4 -20 3 -8 0 -15 -6 -15 -6 0 -8 -7 -5 -15 4 -8 1 -15 -4 -15 -6 0 -9 -9 -7
-20 2 -11 0 -20 -4 -20 -5 0 -14 -27 -22 -59 -7 -33 -16 -58 -20 -55 -4 2 -6
-7 -4 -21 1 -14 -1 -25 -5 -25 -4 0 -6 -10 -6 -22 1 -13 -3 -29 -8 -37 -8 -11
-8 -13 1 -8 6 4 14 3 18 -3 3 -5 0 -10 -7 -10 -8 -1 -6 -6 6 -15 11 -8 17 -15
13 -15 -4 0 1 -9 12 -21 11 -12 24 -18 30 -14 6 3 11 2 11 -4 0 -6 23 -9 54
-8 30 1 53 4 50 6 -2 2 8 12 21 23 14 11 25 26 25 34 0 8 4 14 8 14 5 0 9 7 9
15 0 27 26 94 34 89 5 -3 4 7 -1 21 -5 14 -6 24 -2 21 5 -3 15 17 22 44 8 30
18 47 24 43 6 -4 5 0 -2 9 -10 13 -10 19 2 31 8 8 12 17 9 21 -3 3 0 12 7 21
7 8 9 15 5 15 -4 0 0 12 10 26 11 18 12 24 4 18 -11 -6 -12 -5 -3 7 6 8 10 22
9 32 -2 9 1 15 6 11 5 -3 9 6 9 20 0 14 4 26 8 26 4 0 9 9 10 20 4 44 6 50 14
50 5 0 6 5 3 10 -3 6 -1 10 5 10 6 0 8 4 5 10 -3 5 16 20 42 32 46 22 83 48
67 48 -4 0 5 9 20 21 14 11 26 29 26 40 0 10 4 19 10 19 5 0 7 7 4 15 -4 8 -1
15 5 15 6 0 11 11 11 24 0 14 5 28 10 31 6 4 8 10 5 15 -3 4 2 13 10 20 12 10
13 16 4 26 -9 11 -8 14 0 14 7 0 10 4 6 9 -3 5 -1 12 5 16 6 4 8 10 5 15 -3 5
-1 11 5 15 5 3 10 19 10 34 0 16 7 34 15 41 13 11 13 15 3 21 -8 6 -9 9 -2 9
6 0 15 15 19 33 4 17 9 34 10 37 1 3 5 19 10 35 4 17 12 36 18 43 5 7 7 15 4
19 -4 3 -2 12 5 20 6 8 13 24 14 36 4 38 9 51 24 67 12 11 12 12 1 5 -12 -8
-12 -7 -3 11 6 12 8 24 5 28 -3 3 0 6 7 6 7 0 10 3 7 6 -3 4 -1 16 5 28 7 11
13 28 14 36 5 30 10 45 18 58 4 7 5 16 2 19 -3 4 2 15 11 26 11 12 12 17 4 12
-11 -6 -12 -5 -5 6 15 24 33 82 28 91 -3 4 0 8 6 8 7 0 10 7 6 15 -3 8 -1 15
4 15 5 0 7 9 5 20 -2 11 1 23 7 26 7 5 8 2 3 -6 -5 -8 -4 -11 2 -7 6 4 9 18 8
32 -2 14 0 25 4 25 4 0 8 7 9 15 1 8 3 22 4 30 1 8 5 15 10 15 5 0 7 4 3 10
-3 5 -1 18 5 30 5 11 15 29 20 40 8 15 7 20 -2 20 -8 0 -9 3 -3 8 6 4 11 14
13 22 2 8 8 17 13 18 5 2 7 7 4 12 -3 5 0 21 7 37 6 15 10 32 9 36 0 4 4 18
11 30 7 12 11 26 10 31 -2 4 1 13 6 20 5 6 8 21 7 33 -1 12 2 20 6 17 4 -2 10
0 14 6 3 5 0 10 -7 10 -9 0 -9 3 2 10 8 5 11 10 6 10 -5 0 -3 7 4 15 7 8 9 15
5 15 -4 0 -2 6 4 13 6 8 8 17 4 20 -3 4 0 7 8 7 12 0 12 2 -1 10 -12 8 -12 10
3 16 9 3 14 10 11 15 -3 5 -2 15 3 22 9 14 10 19 12 48 1 12 5 17 13 13 7 -4
8 -3 4 5 -4 6 -1 24 7 41 11 21 12 30 3 34 -7 3 -7 5 2 5 7 1 10 6 7 11 -3 6
-1 10 4 10 6 0 10 3 10 8 -1 4 0 9 1 12 1 3 4 18 6 35 3 16 8 32 12 35 4 3 9
14 10 25 2 11 9 26 14 33 7 8 7 12 0 12 -7 0 -6 9 1 25 7 14 16 25 20 25 5 0
5 5 2 10 -3 6 -3 16 2 23 4 6 8 19 8 27 0 8 6 14 13 13 6 -2 12 1 12 7 0 6 9
6 23 1 13 -5 30 -5 37 -1 9 5 20 4 27 -2 7 -6 13 -7 13 -2 0 5 43 9 95 9 52 0
95 -3 95 -6 0 -7 49 -3 57 5 4 3 12 1 20 -5 7 -6 13 -8 13 -3 0 5 16 9 35 10
19 0 35 -3 35 -6 0 -8 49 -4 57 4 4 3 12 1 20 -5 7 -6 13 -8 13 -3 0 5 29 7
65 6 l65 -4 1 -51 c4 -279 5 -297 23 -310 10 -7 19 -26 21 -42 2 -17 6 -41 9
-55 26 -113 40 -168 48 -183 5 -10 11 -26 13 -35 2 -9 11 -35 20 -57 10 -22
17 -41 16 -42 -2 -5 83 -166 103 -196 10 -15 69 -65 130 -111 61 -47 121 -94
133 -105 12 -12 26 -21 30 -21 4 0 22 -14 40 -30 18 -17 35 -30 38 -30 3 0 16
-10 29 -23 13 -12 43 -38 67 -57 24 -19 67 -58 95 -86 42 -41 58 -51 81 -48
15 2 60 6 98 9 39 4 86 9 105 11 149 16 152 15 195 -7 l42 -23 26 21 c15 11
24 23 20 26 -3 4 2 9 11 13 9 3 16 10 16 15 0 4 18 27 40 51 22 24 40 49 40
56 0 7 5 10 10 7 6 -3 10 -2 10 2 0 5 14 26 32 47 31 37 32 38 40 16 4 -12 6
-26 2 -31 -3 -5 0 -9 5 -9 6 0 11 -9 11 -21 0 -11 4 -18 8 -15 4 3 7 -8 6 -25
-1 -16 3 -29 8 -29 6 0 8 -9 5 -20 -3 -13 -1 -18 6 -13 6 4 8 0 4 -10 -3 -9
-2 -19 4 -22 5 -4 7 -11 4 -16 -4 -5 -1 -9 4 -9 6 0 11 -12 11 -26 0 -14 4
-23 8 -20 4 2 7 -11 7 -29 -1 -19 2 -32 6 -29 4 2 10 0 14 -6 3 -5 1 -10 -4
-10 -7 0 -8 -6 -2 -18 23 -44 31 -69 33 -94 1 -16 6 -28 10 -28 4 0 7 -3 7 -7
-1 -5 0 -11 1 -15 1 -5 4 -12 5 -18 1 -5 3 -11 4 -12 2 -2 5 -14 7 -28 2 -13
10 -28 17 -32 6 -4 9 -8 5 -8 -4 0 -2 -15 3 -32 17 -55 21 -72 22 -90 1 -9 4
-15 8 -12 4 2 9 -6 12 -19 2 -12 8 -31 12 -41 7 -15 5 -17 -6 -11 -8 5 -7 1 4
-12 9 -11 14 -23 10 -26 -3 -4 -1 -7 5 -7 7 0 12 -9 12 -19 0 -11 6 -26 13
-33 8 -7 12 -18 10 -24 -2 -6 5 -14 17 -17 12 -3 20 -13 20 -26 0 -15 6 -21
24 -21 13 0 29 -7 36 -15 7 -8 16 -12 21 -9 5 3 9 0 9 -5 0 -6 7 -11 17 -11 9
0 13 -3 10 -7 -4 -3 -2 -12 4 -20 9 -10 8 -13 -2 -13 -9 -1 -8 -5 5 -15 11 -8
16 -15 12 -15 -5 0 -2 -8 5 -17 12 -15 12 -16 -1 -8 -13 8 -13 6 -2 -8 8 -9
11 -21 7 -27 -3 -5 -1 -10 6 -10 7 0 9 -3 6 -7 -4 -3 1 -15 10 -26 10 -11 12
-17 6 -13 -7 4 -13 3 -13 -3 0 -5 5 -11 10 -13 6 -2 11 -17 13 -35 1 -17 6
-29 11 -25 5 3 7 -2 3 -11 -3 -9 -2 -19 4 -22 5 -4 7 -11 4 -16 -4 -5 -1 -9 5
-9 7 0 10 -6 7 -14 -3 -8 -3 -17 1 -21 4 -4 8 -11 8 -16 1 -5 3 -11 4 -14 1
-3 4 -9 5 -15 1 -5 3 -11 5 -12 2 -3 6 -19 14 -58 3 -14 10 -26 16 -28 6 -2 7
-8 4 -13 -3 -6 -1 -15 4 -22 5 -7 8 -20 7 -29 -2 -10 1 -18 6 -18 5 0 9 -7 9
-14 0 -8 15 -27 34 -41 26 -20 43 -25 81 -23 28 1 49 7 52 15 3 7 9 10 14 7 5
-3 9 0 9 6 0 6 5 8 10 5 6 -4 10 -3 9 2 -2 15 13 53 20 49 9 -6 7 37 -3 52 -4
7 -4 12 0 12 3 0 -1 11 -10 25 -12 17 -13 25 -4 25 9 0 9 3 0 12 -7 7 -12 20
-12 30 0 10 -5 18 -11 18 -8 0 -7 6 2 17 8 9 9 14 3 10 -11 -6 -34 53 -34 87
0 9 -5 16 -11 16 -5 0 -7 4 -4 10 3 5 0 10 -7 10 -10 0 -10 2 0 9 12 7 12 11
-1 22 -7 7 -12 21 -9 31 2 10 -1 18 -7 18 -6 0 -11 8 -11 18 0 10 -6 24 -12
31 -10 11 -10 13 0 7 6 -4 12 -2 12 3 0 6 -5 11 -11 11 -6 0 -9 7 -5 15 3 8 1
15 -4 15 -6 0 -10 11 -10 24 0 13 -6 27 -12 29 -10 4 -10 6 0 6 11 1 10 4 -1
16 -9 8 -14 23 -13 32 2 10 -1 21 -6 24 -5 3 -3 13 6 21 8 9 12 18 9 22 -3 3
2 8 11 12 9 3 13 10 10 15 -3 5 -1 9 3 9 8 0 13 19 16 63 1 9 4 17 7 17 7 0 5
40 -3 60 -4 8 -8 26 -10 40 -2 14 -9 36 -14 50 -6 14 -9 28 -6 33 2 4 0 7 -5
7 -5 0 -13 20 -16 45 -4 25 -11 45 -16 45 -4 0 -7 13 -6 29 1 17 -2 28 -6 25
-4 -3 -8 4 -8 15 0 12 -3 21 -7 21 -5 0 -9 14 -10 32 -1 17 -8 35 -15 39 -7 4
-9 11 -5 15 4 4 2 13 -3 20 -6 6 -10 16 -8 20 1 5 -3 18 -9 29 -6 11 -9 28 -8
38 2 9 -2 17 -8 17 -5 0 -7 3 -4 7 4 3 2 12 -4 20 -6 7 -8 13 -4 13 4 0 2 6
-4 14 -6 7 -12 25 -13 40 -1 14 -5 26 -9 26 -5 0 -7 8 -11 50 -1 11 -6 20 -10
20 -4 0 -8 11 -8 25 0 14 -4 25 -8 25 -5 0 -9 6 -10 13 -6 53 -15 83 -30 100
-9 11 -11 17 -4 13 11 -6 11 -4 3 10 -16 31 -26 61 -29 92 -1 8 -7 10 -14 6
-9 -5 -9 -2 1 9 10 13 10 17 1 17 -7 0 -10 7 -7 15 4 8 2 17 -4 20 -5 4 -7 11
-4 16 4 5 2 9 -2 9 -5 0 -10 12 -11 27 -1 15 -5 29 -10 32 -6 5 -10 15 -16 46
-1 6 -6 20 -10 32 -9 29 -4 39 122 208 183 245 262 354 262 363 0 4 9 14 20
22 11 8 20 18 20 23 0 4 17 29 38 56 20 26 43 57 50 67 53 78 136 190 145 196
7 4 8 8 4 8 -5 0 3 15 17 33 15 17 30 37 35 43 4 5 14 21 21 35 7 13 19 28 27
32 7 5 11 12 8 18 -4 5 -3 9 2 9 4 0 24 25 43 55 19 30 38 55 43 55 4 0 7 7 7
15 0 7 6 18 13 22 7 4 18 20 24 36 7 15 17 27 23 27 5 0 10 5 10 11 0 7 16 34
35 60 19 27 35 54 35 59 0 6 5 10 10 10 6 0 10 7 10 15 0 8 5 15 10 15 6 0 10
7 10 15 0 8 5 15 12 15 6 0 8 3 5 6 -4 4 2 19 13 34 11 16 20 31 20 36 0 4 32
37 72 73 103 96 218 212 218 221 0 4 17 4 38 -1 20 -5 53 -9 72 -9 31 0 35 3
35 25 0 32 -22 37 -177 47 -25 2 -46 32 -29 43 26 15 105 21 162 11 28 -5 38
-3 43 9 5 15 -4 23 -36 29 -62 13 -143 47 -150 64 -1 5 -32 12 -68 15 -36 3
-71 7 -77 9 -6 2 -18 -6 -26 -16 -10 -14 -19 -17 -33 -11 -10 4 -23 9 -29 10
-5 2 -37 10 -70 18 -55 15 -238 47 -345 62 -25 4 -61 9 -80 12 -19 4 -48 5
-65 4 -46 -2 -185 -1 -471 5 -182 4 -268 3 -282 -5 -14 -8 -23 -8 -27 -1 -7
11 -42 9 -60 -2 -6 -4 -17 -3 -25 3 -8 5 -38 9 -66 9 -50 0 -50 0 -50 32 0 27
18 49 131 162 127 127 163 160 275 256 29 25 61 53 71 63 11 9 22 17 25 17 3
0 12 7 21 15 23 24 240 165 252 165 6 0 11 5 11 10 0 6 5 10 12 10 6 0 51 20
100 45 48 25 88 42 88 38 0 -4 5 0 11 10 6 9 14 15 20 12 5 -4 9 -1 9 4 0 6 9
11 20 11 11 0 20 5 20 11 0 6 6 9 14 6 8 -3 16 -2 18 3 3 9 153 80 169 80 5 0
9 4 9 10 0 5 3 9 8 8 7 -2 63 21 122 52 19 10 39 19 43 19 4 0 31 11 60 24 29
13 88 39 132 57 44 18 110 45 146 60 36 16 74 30 85 32 10 1 21 5 24 8 5 6
255 99 281 105 8 2 32 10 52 19 20 8 37 13 37 10 0 -3 9 0 20 6 18 10 254 87
291 95 9 2 47 12 85 24 38 11 87 24 109 30 148 36 167 43 211 87 81 81 216
126 419 139 26 2 47 -3 59 -14 17 -15 20 -14 47 19 16 19 29 38 29 42 0 4 6 8
14 8 8 0 17 7 20 16 5 14 10 14 39 -3 42 -26 75 -34 80 -20 5 17 -4 57 -14 57
-5 0 -9 5 -9 11 0 13 -51 69 -63 69 -10 0 -37 26 -37 34 0 3 15 6 34 6 28 0
34 4 33 19 -1 15 -7 18 -32 14 -29 -5 -104 -6 -190 -2 -22 1 -60 -1 -85 -6
-25 -4 -56 -9 -70 -10 -14 -2 -38 -6 -55 -9 -16 -3 -52 -8 -79 -10 -26 -3 -56
-7 -65 -10 -9 -3 -32 -7 -51 -10 -112 -15 -137 -19 -155 -23 -52 -11 -62 -13
-95 -17 -19 -2 -51 -7 -70 -11 -19 -3 -42 -7 -50 -9 -8 -2 -31 -6 -50 -9 -19
-4 -46 -9 -60 -11 -14 -3 -36 -8 -50 -11 -14 -3 -38 -7 -55 -10 -32 -6 -64
-12 -105 -21 -33 -7 -65 -13 -92 -18 -13 -2 -35 -9 -50 -15 -21 -8 -28 -8 -28
2 0 8 -3 9 -8 1 -5 -9 -125 -42 -212 -59 -8 -2 -17 -4 -20 -6 -3 -1 -9 -3 -15
-4 -5 -1 -17 -5 -25 -8 -8 -3 -46 -15 -85 -27 -38 -12 -109 -37 -156 -55 -47
-19 -119 -41 -160 -50 -74 -16 -340 -102 -349 -114 -3 -3 -12 -7 -20 -9 -8 -2
-33 -12 -56 -23 -24 -10 -48 -19 -53 -19 -6 0 -11 -4 -11 -10 0 -5 -8 -10 -17
-10 -10 0 -27 -7 -37 -15 -10 -8 -23 -12 -27 -9 -5 3 -9 1 -9 -4 0 -5 -15 -15
-32 -22 -18 -8 -41 -20 -50 -28 -10 -8 -18 -12 -18 -7 0 4 -12 0 -26 -10 -14
-9 -51 -31 -83 -47 -96 -53 -306 -181 -309 -190 -2 -4 -12 -8 -23 -8 -10 0
-19 -4 -19 -8 0 -4 -27 -24 -60 -43 -33 -18 -60 -37 -60 -41 0 -5 -4 -8 -10
-8 -10 0 -101 -60 -111 -73 -3 -5 -10 -9 -15 -10 -13 -1 -141 -84 -205 -133
-59 -45 -86 -67 -149 -121 -20 -18 -41 -29 -46 -25 -5 4 -6 3 -2 -1 7 -10 -67
-80 -87 -83 -7 -1 -16 12 -20 30 -4 17 -9 34 -10 39 -1 4 -3 12 -4 18 0 5 -7
7 -13 3 -9 -5 -9 -2 1 9 9 12 10 17 2 17 -7 0 -10 4 -6 9 3 5 -2 17 -11 25 -8
9 -10 16 -4 16 8 0 8 6 0 20 -6 11 -7 20 -3 20 4 0 -2 7 -13 15 -14 11 -15 14
-4 15 11 0 12 2 3 8 -7 4 -14 17 -16 27 -8 43 -20 82 -33 112 -8 17 -14 38
-14 47 0 9 -6 16 -12 16 -10 0 -10 2 0 9 11 6 10 11 -3 25 -12 12 -13 16 -3
16 11 0 10 2 0 9 -8 5 -15 20 -15 35 -1 14 -6 26 -11 26 -4 0 -6 7 -2 15 3 8
1 15 -5 15 -6 0 -8 7 -5 16 4 10 2 13 -6 8 -7 -5 -9 0 -6 14 4 12 2 22 -4 22
-5 0 -7 4 -3 9 3 5 0 13 -6 16 -5 4 -8 13 -5 21 3 8 2 14 -3 14 -4 0 -8 6 -9
13 -6 44 -15 76 -23 72 -4 -3 -6 4 -4 15 2 11 -3 26 -11 34 -17 18 -18 30 -1
20 9 -6 9 -4 -1 8 -7 9 -14 28 -16 42 -1 13 -7 31 -13 38 -18 23 -22 45 -10
58 9 10 9 11 0 6 -7 -4 -2 12 10 36 12 24 25 45 30 46 4 2 5 8 1 13 -3 5 -1 9
4 9 6 0 8 9 5 20 -3 11 0 20 6 20 6 0 8 7 4 17 -5 12 -3 14 7 8 9 -5 11 -4 6
4 -4 6 -3 17 3 24 6 8 6 18 1 27 -5 8 -5 21 0 30 5 10 8 99 7 198 -1 100 2
182 6 182 5 0 6 4 3 9 -3 4 -6 90 -6 190 -1 100 -5 179 -9 176 -5 -2 -7 7 -5
20 1 14 -3 25 -9 25 -5 0 -8 3 -4 6 3 4 0 19 -8 34 -8 15 -11 31 -7 35 4 3 0
5 -8 3 -8 -2 -15 3 -16 10 -1 6 -2 17 -3 23 0 5 -5 7 -11 4 -5 -3 -15 5 -22
19 -6 14 -16 26 -22 26 -6 0 -17 9 -24 20 -7 12 -17 18 -22 15 -5 -3 -12 0
-17 7 -4 7 -15 13 -23 13 -8 0 -14 5 -13 10 1 6 -11 10 -25 9 -15 -1 -36 6
-46 15 -11 9 -16 10 -12 3 6 -10 1 -11 -21 -6 -35 8 -34 7 -36 33 -1 11 -5 21
-10 21 -4 0 -5 6 0 13 11 18 12 36 2 43 -5 3 -6 11 -2 17 11 17 11 87 1 87 -5
0 -6 6 -1 13 11 18 12 36 2 43 -5 3 -6 11 -2 17 11 17 11 87 0 87 -5 0 -4 7 3
15 7 8 8 15 3 15 -5 0 -10 9 -11 20 -4 44 -6 50 -14 50 -5 0 -7 4 -3 9 3 5 1
12 -5 16 -6 4 -7 12 -4 18 4 7 4 9 0 5 -11 -9 -46 23 -39 35 3 6 1 7 -5 3 -7
-4 -12 -2 -12 3 0 6 -6 11 -14 11 -8 0 -16 5 -18 10 -2 6 -13 12 -26 13 -12 0
-22 4 -22 8 0 9 -140 8 -146 -2z m4606 -1518 c0 -12 -29 -23 -41 -15 -5 3 -9
2 -9 -3 0 -4 -46 -9 -103 -11 -124 -4 -122 13 2 22 47 4 86 8 87 9 8 8 64 6
64 -2z m-388 -56 c-3 -18 -11 -25 -26 -25 -13 0 -26 -3 -30 -7 -13 -13 -83
-10 -83 4 0 8 12 13 31 13 23 0 92 24 112 39 1 1 -1 -10 -4 -24z m103 15 c3
-4 -7 -11 -23 -14 -15 -4 -35 -9 -44 -12 -12 -4 -16 1 -15 15 1 16 8 20 39 19
21 0 40 -4 43 -8z m-4777 -402 c-2 -7 -7 -16 -13 -20 -6 -5 -5 -8 3 -8 42 0
-31 -43 -93 -55 -11 -2 -20 -4 -20 -5 0 -1 -8 -3 -18 -5 -39 -7 -128 -38 -133
-46 -6 -11 -74 -12 -74 -1 1 17 17 30 55 41 22 7 58 19 80 28 22 8 49 19 60
23 88 34 112 43 125 50 22 13 30 12 28 -2z m-36 -115 c-6 -3 -10 -8 -7 -12 2
-5 -6 -38 -20 -74 -13 -36 -21 -68 -17 -71 3 -3 -1 -6 -9 -6 -11 0 -11 -2 1
-10 9 -6 11 -10 3 -10 -7 0 -10 -7 -6 -17 4 -10 2 -14 -4 -10 -6 4 -14 0 -17
-9 -4 -10 -2 -13 7 -8 8 5 7 2 -2 -9 -7 -9 -10 -17 -6 -17 5 0 0 -9 -10 -20
-10 -11 -13 -20 -7 -20 7 0 4 -14 -8 -36 -11 -19 -16 -32 -9 -29 6 4 4 -7 -5
-23 -9 -17 -16 -37 -16 -44 0 -7 -7 -26 -15 -41 -8 -15 -10 -25 -5 -22 5 3 2
-8 -6 -25 -9 -16 -12 -35 -8 -41 4 -8 3 -9 -4 -5 -8 5 -12 -1 -12 -17 0 -13
-3 -27 -7 -31 -8 -8 -10 -13 -12 -45 0 -11 -7 -26 -13 -33 -7 -7 -13 -24 -13
-37 0 -15 -7 -25 -18 -27 -9 -1 -17 1 -17 5 0 8 -17 9 -220 11 -85 1 -184 -2
-220 -5 -36 -4 -84 -7 -107 -8 -24 -1 -43 -4 -43 -7 0 -3 -12 -6 -27 -7 -16 0
-48 -4 -73 -7 -25 -4 -56 -9 -70 -11 -14 -2 -36 -6 -50 -10 -31 -7 -97 -17
-127 -19 -13 0 -23 -5 -23 -9 0 -5 -5 -7 -12 -5 -7 3 -36 -1 -65 -8 -51 -12
-54 -11 -93 17 -52 38 -61 72 -26 100 14 11 33 27 41 35 8 9 15 12 15 7 0 -4
4 -3 8 2 6 9 31 27 83 60 9 5 49 27 90 49 41 21 76 42 77 47 2 5 10 9 17 9 15
0 77 31 86 43 3 5 12 9 20 11 21 4 114 50 117 59 2 4 8 7 13 7 5 0 56 22 112
49 56 27 129 61 162 75 33 15 72 34 86 41 14 8 29 12 33 8 3 -3 6 -2 6 4 0 10
36 26 53 24 4 -1 7 4 7 9 0 6 3 9 8 8 4 -1 36 12 72 28 36 17 72 34 80 38 8 3
22 10 30 15 43 26 205 99 210 94 3 -3 -1 -8 -8 -10z m-324 -54 c2 -13 -73 -53
-283 -150 -38 -18 -73 -37 -77 -43 -4 -6 -8 -8 -8 -3 0 4 -19 -3 -42 -15 -24
-12 -45 -23 -48 -24 -3 -1 -15 -5 -27 -9 -13 -4 -23 -12 -23 -17 0 -5 -4 -7
-9 -3 -5 3 -17 -3 -27 -12 -10 -10 -19 -16 -21 -14 -4 3 -119 -41 -154 -59
-11 -5 -16 -4 -16 6 0 8 6 14 14 14 7 0 13 5 13 10 0 6 3 9 8 8 9 -3 72 30 95
50 9 8 17 11 17 7 0 -4 8 -1 18 8 29 26 409 224 444 231 7 2 24 8 38 13 58 24
83 25 88 2z m881 -55 c25 -2 52 1 62 6 19 10 56 -21 45 -39 -3 -5 -2 -11 4
-13 5 -1 11 -15 12 -30 1 -16 5 -28 9 -28 3 0 6 -6 7 -12 2 -25 8 -48 15 -54
4 -4 7 -18 7 -31 0 -12 5 -23 11 -23 5 0 9 -8 8 -17 -1 -10 3 -31 10 -48 7
-16 13 -38 14 -47 1 -10 6 -18 12 -18 5 0 4 -4 -3 -9 -11 -6 -10 -10 3 -15 10
-3 15 -12 11 -21 -3 -8 0 -17 5 -21 6 -3 9 -17 6 -30 -2 -14 0 -27 6 -31 6 -4
7 -1 2 8 -5 8 -4 11 1 6 5 -5 8 -12 8 -15 -1 -4 5 -29 14 -57 8 -27 15 -56 15
-62 0 -7 4 -13 9 -13 4 0 8 -11 8 -25 0 -14 5 -25 11 -25 6 0 9 -8 6 -19 -2
-10 0 -27 6 -37 11 -19 16 -34 19 -66 1 -10 6 -18 10 -18 4 0 8 -11 8 -25 0
-14 4 -25 8 -25 4 0 9 -8 10 -17 4 -35 16 -74 33 -105 6 -12 6 -18 -2 -18 -5
0 -7 -5 -4 -10 4 -6 11 -7 17 -4 7 4 8 2 4 -5 -4 -6 -2 -19 6 -28 11 -14 11
-16 -2 -8 -12 7 -13 6 -3 -7 7 -8 14 -27 15 -42 1 -14 6 -26 10 -26 14 0 8
-57 -7 -70 -8 -7 -15 -18 -15 -24 0 -30 -110 -83 -187 -90 -21 -2 -45 -6 -53
-9 -48 -17 -380 -32 -380 -17 0 13 22 53 35 62 6 4 7 8 2 8 -4 0 0 16 8 36 8
20 15 66 15 101 0 73 -35 203 -55 203 -7 0 -18 7 -25 15 -7 9 -15 14 -17 11
-3 -2 -21 7 -40 20 -20 13 -39 24 -43 24 -14 0 -29 47 -18 58 6 6 11 23 12 39
2 15 8 39 15 51 7 13 10 30 7 38 -3 9 -1 12 4 9 9 -5 15 15 11 38 0 4 4 7 10
7 5 0 8 4 5 8 -3 5 1 20 8 33 7 14 12 33 10 42 -1 9 2 17 6 17 5 0 8 8 8 18 0
9 5 31 12 47 7 17 12 36 11 43 -1 6 2 12 6 12 5 0 10 9 11 20 4 43 6 50 13 50
4 0 10 7 13 16 4 10 2 13 -7 8 -8 -6 -8 -3 1 9 8 9 11 21 7 27 -3 5 -1 10 5
10 6 0 9 4 5 9 -3 5 0 13 6 16 5 4 8 13 5 21 -3 8 -1 14 4 14 6 0 10 8 10 18
0 10 6 24 13 31 10 11 9 12 -1 6 -10 -5 -9 1 3 24 9 17 13 36 10 41 -3 6 -1
10 5 10 7 0 9 7 6 16 -3 8 -2 12 4 9 6 -3 10 5 10 18 0 28 9 39 24 30 6 -4 31
-8 55 -9z m-2219 -718 c0 13 20 -19 20 -32 0 -14 -34 -24 -47 -15 -7 5 -9 32
-4 57 0 4 8 1 16 -6 8 -7 15 -9 15 -4z m-160 -162 c0 -8 11 -37 25 -64 28 -56
20 -70 -21 -38 -16 12 -31 23 -33 24 -10 8 -17 84 -8 93 13 13 37 3 37 -15z
m208 3 c6 -5 12 -7 12 -3 0 3 18 -5 40 -19 22 -14 42 -25 45 -25 15 0 75 -54
75 -66 0 -22 -61 -17 -124 11 -67 29 -146 103 -125 116 15 9 57 2 77 -14z
m1823 -120 c25 -59 18 -96 -11 -62 -7 8 -19 15 -26 15 -8 0 -14 9 -14 21 0 11
4 18 9 15 4 -3 7 8 5 24 -5 39 19 31 37 -13z m-21 -187 c0 -27 -22 -25 -48 3
-15 16 -21 32 -18 48 3 13 5 26 5 28 3 13 61 -62 61 -79z m-90 -105 c0 -17 -4
-23 -14 -19 -8 3 -12 13 -9 25 7 27 23 24 23 -6z m3100 -426 c0 -16 -7 -19
-40 -19 -53 0 -50 30 5 42 27 6 35 1 35 -23z m-822 -94 c41 -3 72 -1 72 4 0 6
12 7 28 5 15 -3 38 -7 52 -9 14 -2 25 -4 25 -5 0 -1 20 -3 45 -5 61 -4 144
-15 149 -20 5 -6 -61 -137 -79 -155 -8 -9 -40 -51 -70 -93 -30 -42 -58 -77
-62 -77 -4 0 -8 -5 -8 -11 0 -6 -20 -38 -45 -70 -25 -33 -45 -61 -45 -63 0 -2
-9 -15 -20 -28 -11 -12 -38 -47 -60 -76 -28 -36 -45 -50 -53 -44 -7 5 -86 8
-177 7 -170 -1 -194 1 -184 16 3 5 0 9 -6 9 -6 0 -8 5 -5 10 3 6 1 10 -5 10
-6 0 -8 5 -5 10 3 6 2 10 -3 10 -6 0 -8 8 -5 19 3 10 0 22 -6 25 -5 4 -8 13
-4 21 3 8 1 15 -4 15 -5 0 -10 6 -11 13 -1 6 -3 23 -4 37 -2 14 -9 31 -16 38
-7 8 -10 18 -7 23 4 5 2 9 -3 9 -5 0 -8 11 -7 25 2 14 -1 23 -6 19 -5 -3 -9 6
-9 20 0 14 -4 26 -8 26 -5 0 -8 13 -7 30 1 17 -2 27 -8 23 -6 -4 -8 0 -4 10 3
10 3 17 -2 17 -4 0 -14 26 -21 58 -8 31 -20 66 -27 77 -16 25 -17 38 0 29 9
-6 9 -5 0 8 -7 8 -10 18 -6 21 3 4 1 7 -5 7 -7 0 -12 5 -12 10 0 10 455 6 638
-5z m-1953 -37 c11 0 32 2 48 5 15 2 30 1 32 -4 3 -4 -6 -33 -19 -63 -14 -31
-23 -56 -21 -56 2 0 -7 -26 -19 -57 -20 -52 -25 -58 -52 -58 -16 0 -32 -4 -36
-10 -5 -6 -8 -4 -8 4 0 11 -3 10 -13 -3 -9 -12 -13 -48 -12 -110 1 -50 -4 -97
-9 -105 -8 -11 -8 -13 0 -8 13 8 12 -73 -1 -94 -5 -7 -4 -10 3 -5 7 4 10 -1 9
-14 -1 -10 -6 -21 -12 -23 -10 -3 -521 -1 -585 3 -19 1 -29 4 -22 7 6 2 10 9
6 14 -3 5 0 9 5 9 6 0 10 3 10 8 -1 4 0 10 1 15 4 13 6 21 14 60 5 20 12 37
17 37 4 0 6 9 4 20 -2 11 1 20 7 20 5 0 8 7 4 15 -3 9 0 15 10 15 8 0 12 5 9
10 -4 6 -12 8 -18 4 -7 -3 -5 0 3 8 8 7 17 24 18 38 2 14 7 30 12 35 7 10 23
61 25 80 0 6 5 17 10 25 5 8 10 25 11 38 2 13 7 29 13 36 7 9 7 16 -2 25 -9
10 -9 12 3 9 10 -2 14 3 12 16 -2 10 1 15 7 11 7 -3 8 0 5 9 -5 12 1 16 22 17
16 1 43 3 59 4 17 2 88 6 160 10 71 3 131 8 134 10 2 3 34 2 70 -1 36 -4 75
-6 86 -6z m836 -60 c1 -13 1 -26 0 -30 0 -5 3 -8 8 -8 5 0 12 -7 15 -16 4 -10
2 -13 -7 -8 -9 6 -9 5 0 -8 7 -8 10 -18 6 -21 -3 -4 -1 -7 5 -7 7 0 12 -11 12
-25 0 -14 5 -25 11 -25 5 0 7 -5 4 -10 -4 -6 0 -24 9 -40 8 -17 11 -28 6 -25
-5 3 -2 -8 7 -25 8 -17 12 -37 9 -45 -3 -8 0 -14 7 -12 7 1 11 -6 9 -15 -1
-10 4 -28 13 -41 8 -13 12 -26 9 -30 -3 -3 -2 -12 2 -19 5 -7 9 -17 10 -23 5
-25 9 -40 15 -45 10 -8 20 -60 12 -61 -59 -7 -360 -3 -365 6 -5 7 -8 7 -8 -1
0 -6 -13 -9 -30 -6 -24 3 -28 7 -21 21 5 9 10 21 10 26 1 6 7 28 13 50 6 22
13 48 15 58 2 10 10 31 18 47 8 16 14 33 13 37 -1 4 6 26 16 48 10 22 19 45
20 50 1 6 6 17 11 25 5 8 10 17 10 20 2 12 39 76 47 81 5 3 9 9 8 13 -3 11 59
86 70 86 6 0 11 -10 11 -22z m-618 -34 c3 -3 1 -18 -5 -34 -6 -18 -6 -35 0
-47 17 -32 -2 -61 -41 -61 l-35 0 15 51 c22 73 47 109 66 91z m2118 -296 c-5
-13 -18 -39 -30 -58 -11 -19 -26 -46 -33 -60 -7 -14 -15 -27 -18 -30 -3 -3
-43 -66 -89 -140 -47 -74 -87 -137 -90 -140 -12 -10 -71 -101 -71 -109 0 -4
-11 -14 -25 -21 -14 -7 -23 -15 -22 -17 2 -2 -25 -33 -61 -71 -36 -37 -69 -80
-75 -95 -6 -19 -13 -25 -19 -19 -7 7 6 35 36 81 25 40 46 74 46 77 0 3 9 14
20 26 11 12 20 28 20 35 0 7 5 13 10 13 6 0 10 7 10 15 0 9 7 18 15 21 8 4 15
10 15 16 0 12 101 162 112 166 4 2 8 10 8 17 0 8 7 21 16 29 9 9 32 40 52 69
19 28 44 60 55 70 11 9 17 17 13 17 -4 0 -1 6 6 14 42 43 78 86 71 86 -6 0 27
29 34 30 1 0 -1 -10 -6 -22z m-62 -341 c-19 -28 -37 -53 -41 -55 -5 -2 -8 -10
-8 -18 0 -8 -5 -14 -12 -14 -6 0 -9 -3 -5 -6 3 -4 1 -12 -6 -19 -7 -7 -19 -23
-27 -35 -8 -12 -31 -44 -50 -71 -19 -26 -66 -92 -105 -146 -174 -245 -238
-325 -247 -310 -11 20 4 57 36 92 14 15 23 31 21 35 -3 5 -1 10 4 12 4 1 39
46 76 98 38 52 72 97 77 98 4 2 6 8 2 13 -3 5 -1 9 4 9 5 0 29 28 53 63 23 34
45 64 49 67 3 3 32 41 64 85 33 44 64 83 70 87 6 4 8 8 4 8 -3 0 10 18 30 41
47 52 53 33 11 -34z m-1669 -121 c0 5 43 9 95 9 52 0 95 -3 95 -6 0 -7 49 -3
57 5 4 3 12 1 20 -5 7 -6 13 -8 13 -3 0 5 16 9 35 10 19 0 35 -3 35 -6 0 -8
44 -5 59 5 6 3 11 1 11 -5 0 -8 6 -8 20 0 15 8 23 6 40 -12 15 -16 17 -24 8
-30 -9 -5 -7 -8 7 -9 11 0 15 -3 9 -5 -9 -4 -8 -13 3 -34 8 -17 12 -34 8 -40
-3 -6 1 -13 10 -16 13 -6 14 -8 3 -15 -10 -7 -11 -9 0 -9 7 0 10 -4 7 -10 -3
-5 0 -10 7 -10 9 0 9 -3 -2 -10 -10 -6 -11 -10 -2 -10 6 0 12 -7 12 -15 0 -8
5 -15 12 -15 9 0 9 -3 1 -11 -9 -9 -8 -15 2 -26 8 -7 12 -20 9 -27 -3 -8 0
-17 5 -21 6 -3 9 -11 6 -16 -4 -5 -2 -9 3 -9 5 0 9 -6 9 -12 1 -7 6 -28 11
-45 6 -18 8 -33 4 -33 -4 0 -2 -4 3 -8 14 -10 36 -74 23 -66 -5 4 -3 -5 6 -18
9 -14 13 -28 9 -31 -3 -4 0 -7 8 -7 11 0 11 -2 -1 -10 -10 -6 -11 -10 -2 -10
27 0 10 -38 -51 -115 -4 -5 -31 -41 -58 -80 -28 -38 -56 -73 -62 -77 -7 -4 -8
-8 -3 -8 6 0 0 -9 -11 -19 -12 -11 -23 -26 -25 -33 -4 -11 -10 -10 -31 1 -15
8 -36 22 -46 33 -11 10 -23 18 -26 18 -3 0 -23 17 -45 39 -21 21 -42 36 -45
33 -3 -3 -5 0 -5 7 0 7 -13 24 -30 38 -16 13 -30 31 -30 39 0 8 -4 14 -10 14
-27 0 -153 224 -190 339 -40 122 -77 372 -52 357 4 -2 14 -1 22 4 9 5 19 5 27
-2 7 -6 13 -7 13 -2z m1082 5 c11 6 20 4 28 -6 10 -12 9 -16 -4 -21 -9 -3 -16
-12 -16 -20 0 -8 -4 -14 -10 -14 -5 0 -10 -5 -10 -10 0 -19 -37 -52 -45 -41
-3 6 -4 15 -1 20 4 5 2 11 -4 13 -5 1 -11 15 -12 31 -1 15 -7 27 -13 27 -5 0
-2 7 9 15 12 9 25 11 40 5 12 -4 29 -4 38 1z m-4173 -374 c-72 -65 -131 -112
-146 -115 -7 -2 -13 -7 -13 -11 0 -4 -36 -34 -81 -66 -45 -32 -86 -63 -92 -69
-7 -6 -29 -22 -49 -36 -21 -14 -38 -28 -38 -32 0 -5 -7 -8 -15 -8 -7 0 -18 -6
-22 -12 -4 -7 -15 -17 -24 -23 -72 -44 -149 -100 -149 -108 0 -6 -3 -8 -6 -4
-4 3 -21 -4 -38 -17 -39 -28 -109 -30 -114 -3 -2 9 1 17 6 17 12 0 206 131
210 142 2 4 9 8 16 8 7 0 26 11 42 25 16 14 37 28 47 31 9 3 17 10 17 16 0 6
3 9 6 5 6 -6 11 -3 58 38 16 14 35 25 42 25 8 0 14 4 14 10 0 5 11 12 24 16
14 3 27 12 30 20 3 8 11 14 18 14 7 0 25 11 39 24 14 13 35 27 47 30 12 4 22
12 22 17 0 5 6 9 13 9 8 0 27 11 43 25 16 14 34 25 40 25 6 0 18 7 25 16 13
16 44 32 64 33 6 1 -11 -18 -36 -42z m2607 -40 c-8 -73 -42 -78 -39 -5 0 23 2
46 2 50 1 3 10 4 21 1 18 -5 20 -12 16 -46z m-2396 -7 c-11 -11 -21 -19 -23
-17 -2 1 -14 -9 -28 -23 -13 -14 -58 -52 -99 -85 -41 -33 -84 -68 -95 -78 -11
-11 -39 -33 -62 -50 -24 -17 -43 -34 -43 -39 0 -4 -6 -8 -14 -8 -8 0 -21 -8
-28 -18 -7 -10 -26 -27 -43 -38 -16 -10 -36 -25 -44 -32 -8 -8 -39 -32 -70
-55 -31 -23 -68 -53 -83 -66 -15 -13 -39 -31 -52 -40 -13 -9 -50 -36 -82 -61
-81 -62 -101 -76 -245 -174 -161 -109 -240 -150 -274 -142 -31 8 -32 24 -2 35
12 5 39 21 60 35 21 14 42 26 47 26 6 0 10 4 10 9 0 4 19 21 42 37 23 16 50
36 59 44 9 8 27 23 40 32 34 24 172 126 184 136 6 4 26 19 45 32 19 14 43 33
54 43 11 9 23 17 27 17 4 0 14 6 21 13 7 7 42 33 78 59 36 26 70 51 75 55 6 4
27 19 47 33 21 14 38 28 38 33 0 4 7 7 15 7 9 0 18 7 21 15 4 8 11 15 16 15 6
0 27 14 48 30 21 17 43 30 49 30 6 0 11 5 11 10 0 6 5 10 11 10 6 0 16 6 23
13 8 6 24 19 36 27 12 8 40 27 61 43 21 15 43 27 48 27 5 0 11 3 13 8 2 4 25
22 52 40 56 36 87 43 56 12z m2609 -228 c11 -11 12 -15 2 -22 -26 -15 -51 1
-51 32 0 32 5 31 49 -10z m-2729 -56 c-14 -18 -80 -49 -87 -42 -8 7 24 37 61
57 32 17 47 9 26 -15z m3315 -208 c35 -19 59 -39 59 -48 -1 -8 -2 -22 -3 -31
0 -9 -8 -20 -17 -23 -18 -7 -76 23 -68 36 3 4 0 8 -5 8 -6 0 -11 9 -11 20 0
11 -4 20 -10 20 -5 0 -10 11 -10 25 0 14 1 25 3 25 2 0 30 -15 62 -32z m495
-140 c0 -39 -68 -128 -81 -106 -11 17 57 138 78 138 2 0 3 -15 3 -32z"/>
<path d="M3182 4850 c-20 -8 -21 -13 -12 -31 9 -16 17 -19 38 -14 15 4 31 7
37 8 12 2 24 29 18 40 -6 10 -53 8 -81 -3z"/>
</g>
</svg>
